<?xml version="1.0" encoding="UTF-8" standalone="no"?>
<svg
   xmlns:dc="http://purl.org/dc/elements/1.1/"
   xmlns:cc="http://creativecommons.org/ns#"
   xmlns:rdf="http://www.w3.org/1999/02/22-rdf-syntax-ns#"
   xmlns:svg="http://www.w3.org/2000/svg"
   xmlns="http://www.w3.org/2000/svg"
   xmlns:sodipodi="http://sodipodi.sourceforge.net/DTD/sodipodi-0.dtd"
   xmlns:inkscape="http://www.inkscape.org/namespaces/inkscape"
   id="Layer_1"
   viewBox="0 0 60.164263 60.176"
   width="100"
   height="100"
   version="1.1"
   sodipodi:docname="Facebook Like button.svg"
   inkscape:version="0.92.2 (5c3e80d, 2017-08-06)">
  <metadata
     id="metadata15">
    <rdf:RDF>
      <cc:Work
         rdf:about="">
        <dc:format>image/svg+xml</dc:format>
        <dc:type
           rdf:resource="http://purl.org/dc/dcmitype/StillImage" />
        <dc:title>Facebook Like button
</dc:title>
        <cc:license
           rdf:resource="http://scripts.sil.org/OFL" />
      </cc:Work>
      <cc:License
         rdf:about="http://scripts.sil.org/OFL">
        <cc:permits
           rdf:resource="http://scripts.sil.org/pub/OFL/Reproduction" />
        <cc:permits
           rdf:resource="http://scripts.sil.org/pub/OFL/Distribution" />
        <cc:permits
           rdf:resource="http://scripts.sil.org/pub/OFL/Embedding" />
        <cc:permits
           rdf:resource="http://scripts.sil.org/pub/OFL/DerivativeWorks" />
        <cc:requires
           rdf:resource="http://scripts.sil.org/pub/OFL/Notice" />
        <cc:requires
           rdf:resource="http://scripts.sil.org/pub/OFL/Attribution" />
        <cc:requires
           rdf:resource="http://scripts.sil.org/pub/OFL/ShareAlike" />
        <cc:requires
           rdf:resource="http://scripts.sil.org/pub/OFL/DerivativeRenaming" />
        <cc:requires
           rdf:resource="http://scripts.sil.org/pub/OFL/BundlingWhenSelling" />
      </cc:License>
    </rdf:RDF>
  </metadata>
  <defs
     id="defs13" />
  <sodipodi:namedview
     pagecolor="#ffffff"
     bordercolor="#666666"
     borderopacity="1"
     objecttolerance="10"
     gridtolerance="10"
     guidetolerance="10"
     inkscape:pageopacity="0"
     inkscape:pageshadow="2"
     inkscape:window-width="1366"
     inkscape:window-height="705"
     id="namedview11"
     showgrid="false"
     inkscape:showpageshadow="false"
     inkscape:zoom="1"
     inkscape:cx="92.996938"
     inkscape:cy="43.519568"
     inkscape:window-x="-8"
     inkscape:window-y="-8"
     inkscape:window-maximized="1"
     inkscape:current-layer="Layer_1" />
  <style
     id="style2">.st0{fill:#5e91ff}.st1{fill:#fff}</style>
  <title
     id="title4">Facebook Like button
</title>
  <path
     style="fill:#5e91ff;stroke-width:0.03923655"
     d="M 30.103832,0.43204598 A 29.486257,29.48624 0 0 0 0.61761328,29.918286 29.486257,29.48624 0 0 0 30.103832,59.404526 29.486257,29.48624 0 0 0 59.590094,29.918286 29.486257,29.48624 0 0 0 30.103832,0.43204598 Z M 34.050818,11.035666 h 0.04321 c 1.731944,0.03136 2.28566,1.630681 2.28566,1.630681 0,0 1.480593,2.916503 0.09818,6.483702 -1.16641,3.01448 -1.405979,3.257538 -1.405979,3.257538 0,0 -0.376994,0.544874 0.816908,0.521354 0,0 7.289099,-0.03137 7.540447,-0.03137 0.538042,0 2.254281,0.489994 2.156098,2.673433 -0.07069,1.615042 -1.076091,2.179543 -1.590565,2.363785 -0.06677,0.02352 -0.10213,0.09797 -0.07464,0.164616 0.01178,0.02744 0.03141,0.05099 0.05889,0.06667 0.526264,0.305758 1.602364,1.077984 1.578796,2.261823 -0.03141,1.434721 -0.60875,1.963921 -1.810507,2.293202 -0.06677,0.01568 -0.109969,0.08623 -0.09033,0.152866 0.0079,0.03528 0.03145,0.06273 0.05895,0.07841 0.455569,0.258721 1.237084,0.889826 1.189959,2.167745 -0.04713,1.301441 -0.989681,1.760084 -1.50416,1.916882 -0.06676,0.0196 -0.106041,0.09014 -0.08641,0.156784 0.0079,0.02744 0.02748,0.0549 0.05105,0.07058 0.32597,0.22344 0.809038,0.729131 0.785474,1.767932 -0.01178,0.5488 -0.196358,0.948623 -0.428069,1.234783 -0.36524,0.4508 -0.938608,0.686012 -1.51985,0.689932 l -16.172677,0.03137 c -0.0039,-0.0039 -0.879728,0 -0.879728,-1.172123 v -10.6467 c 0.0039,-2.62248 0.738321,-5.190059 2.124662,-7.416619 0.844371,-1.34848 2.737337,-3.508408 3.797711,-4.625609 0.235637,-0.25088 1.09178,-0.987852 1.09178,-1.391612 0,-0.51744 0.05892,-1.352392 0.07856,-2.908632 0.01178,-0.98784 0.816902,-1.799268 1.806583,-1.791428 z M 15.474596,26.598043 h 6.484025 c 0.51055,0 0.926856,0.411611 0.926856,0.92513 V 42.38387 c 0,0.5096 -0.412378,0.925132 -0.926856,0.925132 h -6.484025 c -0.510552,0 -0.926811,-0.411612 -0.926811,-0.925132 V 27.519257 c 0.0039,-0.5096 0.416259,-0.921214 0.926811,-0.921214 z"
     id="ellipse6"
     inkscape:connector-curvature="0" />
</svg>
